<svg width="388" height="380" viewBox="0 0 194 190" fill="none" xmlns="http://www.w3.org/2000/svg">
	<path d="M69.2473 149.381C85.5869 152.39 101.27 141.592 104.276 125.264C107.283 108.935 96.4743 93.2598 80.1346 90.2513C63.795 87.2427 48.1119 98.0405 45.1054 114.369C42.0989 130.697 52.9076 146.373 69.2473 149.381Z" stroke="white" stroke-width="5" stroke-miterlimit="10"/>
	<path d="M53.5975 234.377C116.911 246.034 177.681 204.194 189.331 140.924C200.981 77.6546 159.098 16.9138 95.7845 5.25604C32.4706 -6.40168 -28.2993 35.4382 -39.949 98.7081C-51.5986 161.978 -9.71639 222.719 53.5975 234.377Z" stroke="white" stroke-width="5" stroke-miterlimit="10"/>
	<path d="M73.3794 126.94C77.3164 127.665 81.0951 125.063 81.8195 121.129C82.5439 117.195 79.9396 113.418 76.0027 112.693C72.0657 111.968 68.2869 114.569 67.5625 118.504C66.8381 122.438 69.4424 126.215 73.3794 126.94Z" stroke="white" stroke-width="5" stroke-miterlimit="10"/>
</svg>
