<svg width="330" height="352" viewBox="0 0 330 352" fill="none" xmlns="http://www.w3.org/2000/svg">
	<path d="M153.216 172.685C145.837 181.343 142.354 184.083 138.294 183.037C137.654 182.873 80.755 155.856 80.2815 155.69C78.5794 155.098 77.553 153.179 77.6047 151.889C77.6719 150.191 78.9723 148.388 80.8022 148.142C85.9865 147.439 96.0407 145.797 106.804 133.168" stroke="white" stroke-width="5" stroke-miterlimit="10"/>
	<path d="M27.0833 73.5168C31.0202 74.2417 34.799 71.64 35.5234 67.7058C36.2478 63.7715 33.6435 59.9946 29.7065 59.2697C25.7696 58.5448 21.9908 61.1464 21.2664 65.0807C20.542 69.0149 23.1463 72.7919 27.0833 73.5168Z" stroke="white" stroke-width="5" stroke-miterlimit="10"/>
	<path d="M153.216 172.685C160.594 164.027 162.753 160.155 161.072 156.319C160.805 155.713 125.084 103.858 124.847 103.417C123.99 101.834 121.932 101.124 120.664 101.381C118.997 101.717 117.421 103.283 117.467 105.127C117.592 110.354 117.569 120.533 106.805 133.162" stroke="white" stroke-width="5" stroke-miterlimit="10"/>
	<path opacity="0.07" d="M147.922 137.053C144.843 144.262 140.633 151.13 135.284 157.411C129.935 163.692 123.833 168.912 117.211 173.096" stroke="white" stroke-width="6" stroke-miterlimit="10"/>
	<path opacity="0.07" d="M142.116 128.592C139.304 136.911 134.898 144.844 128.855 151.938C122.722 159.129 115.468 164.8 107.567 168.907" stroke="white" stroke-width="6" stroke-miterlimit="10"/>
	<path d="M-22.501 140.331C-26.3121 129.613 -26.9506 125.226 -24.0126 122.24C-23.5477 121.769 28.3004 86.0381 28.6793 85.7101C30.0431 84.5359 32.2195 84.6052 33.3127 85.297C34.751 86.2049 35.6652 88.2294 34.966 89.9369C32.987 94.7765 29.3835 104.295 34.943 119.93" stroke="white" stroke-width="5" stroke-miterlimit="10"/>
	<path d="M130.681 92.5917C134.618 93.3166 138.397 90.7149 139.121 86.7807C139.845 82.8465 137.241 79.0695 133.304 78.3446C129.367 77.6197 125.588 80.2214 124.864 84.1556C124.14 88.0899 126.744 91.8668 130.681 92.5917Z" stroke="white" stroke-width="5" stroke-miterlimit="10"/>
	<path d="M-22.501 140.331C-18.6899 151.05 -16.4111 154.85 -12.2451 155.319C-11.5888 155.393 51.2015 150.415 51.7033 150.428C53.5046 150.481 55.1473 149.053 55.5584 147.829C56.1003 146.219 55.5272 144.072 53.9051 143.19C49.311 140.686 40.5013 135.571 34.9417 119.936" stroke="white" stroke-width="5" stroke-miterlimit="10"/>
	<path opacity="0.07" d="M11.0233 153.571C6.31342 147.301 2.46249 140.221 -0.305104 132.446C-3.0727 124.671 -4.55221 116.781 -4.86365 108.961" stroke="white" stroke-width="6" stroke-miterlimit="10"/>
	<path opacity="0.07" d="M21.253 152.776C15.448 146.185 10.7723 138.397 7.65141 129.622C4.48123 120.718 3.20154 111.599 3.59143 102.709" stroke="white" stroke-width="6" stroke-miterlimit="10"/>
	<path d="M93.3572 4.43877C104.547 6.49914 108.67 8.13991 109.79 12.1779C109.965 12.8134 115.016 75.5608 115.111 76.0555C115.449 77.8215 114.299 79.6714 113.154 80.2694C111.649 81.0595 109.441 80.8385 108.304 79.3762C105.098 75.2394 98.6477 67.3628 82.3246 64.3573" stroke="white" stroke-width="5" stroke-miterlimit="10"/>
	<path d="M62.3739 172.711C66.3109 173.436 70.0896 170.834 70.814 166.9C71.5384 162.966 68.9341 159.189 64.9972 158.464C61.0602 157.739 57.2814 160.341 56.557 164.275C55.8326 168.209 58.4369 171.986 62.3739 172.711Z" stroke="white" stroke-width="5" stroke-miterlimit="10"/>
	<path d="M93.3572 4.43876C82.1672 2.37839 77.7305 2.44316 75.2452 5.81723C74.8554 6.34872 47.7865 63.182 47.5218 63.6106C46.5768 65.1403 46.9924 67.2785 47.8493 68.245C48.9746 69.5195 51.1167 70.0996 52.7 69.1382C57.1686 66.4143 66.0016 61.3518 82.3247 64.3573" stroke="white" stroke-width="5" stroke-miterlimit="10"/>
	<path opacity="0.07" d="M65.128 26.8252C72.9166 25.886 80.9711 26.0962 89.0942 27.5919C97.2172 29.0875 104.793 31.7552 111.726 35.3917" stroke="white" stroke-width="6" stroke-miterlimit="10"/>
	<path opacity="0.07" d="M60.6976 36.0792C69.3147 34.3512 78.3912 34.1994 87.56 35.8876C96.8573 37.5995 105.403 41.0491 112.914 45.8328" stroke="white" stroke-width="6" stroke-miterlimit="10"/>
</svg>
