<?xml version="1.0" encoding="UTF-8"?><svg id="Layer_3" xmlns="http://www.w3.org/2000/svg" viewBox="0 0 745 512"><circle cx="361.39" cy="256" r="46.11" fill="none" stroke="#fff" stroke-miterlimit="10" stroke-width="7"/><circle cx="280.66" cy="209.39" r="11.11" fill="none" stroke="#fff" stroke-miterlimit="10" stroke-width="7"/><circle cx="361.39" cy="256" r="178.67" fill="none" stroke="#fff" stroke-miterlimit="10" stroke-width="7"/><circle cx="361.39" cy="256" r="11.11" fill="none" stroke="#fff" stroke-miterlimit="10" stroke-width="7"/><path d="m498.32,335.06c-8.72,15.11-13.21,20.21-19.62,19.76-1.01-.07-94.28-25.02-95.04-25.14-2.73-.42-4.81-3.03-5.09-4.99-.37-2.58,1.09-5.66,3.78-6.54,7.62-2.5,22.32-7.77,35.04-29.81" fill="none" stroke="#fff" stroke-miterlimit="10" stroke-width="7"/><path d="m444.11,345.72c8.84-8.15,16.61-17.76,22.94-28.72s10.75-22.45,13.39-34.16" fill="none" opacity=".07" stroke="#fff" stroke-miterlimit="10" stroke-width="6"/><path d="m428.9,341.68c10.58-8.33,19.79-18.78,26.93-31.15,7.25-12.55,11.71-25.95,13.59-39.47" fill="none" opacity=".07" stroke="#fff" stroke-miterlimit="10" stroke-width="6"/><circle cx="361.39" cy="256" r="46.11" fill="none" stroke="#fff" stroke-miterlimit="10" stroke-width="7"/><circle cx="280.66" cy="209.39" r="11.11" fill="none" stroke="#fff" stroke-miterlimit="10" stroke-width="7"/><circle cx="361.39" cy="256" r="178.67" fill="none" stroke="#fff" stroke-miterlimit="10" stroke-width="7"/><circle cx="361.39" cy="256" r="11.11" fill="none" stroke="#fff" stroke-miterlimit="10" stroke-width="7"/><path d="m498.32,335.06c8.72-15.11,10.9-21.55,7.3-26.87-.57-.84-68.81-69.14-69.29-69.74-1.73-2.15-5.03-2.65-6.87-1.91-2.42.97-4.36,3.77-3.78,6.54,1.64,7.85,4.43,23.21-8.29,45.25" fill="none" stroke="#fff" stroke-miterlimit="10" stroke-width="7"/><path d="m480.45,282.78c-2.64,11.73-7.08,23.26-13.4,34.22s-14.07,20.53-22.89,28.68" fill="none" opacity=".07" stroke="#fff" stroke-miterlimit="10" stroke-width="6"/><path d="m469.35,271.63c-1.93,13.33-6.37,26.52-13.51,38.9-7.25,12.55-16.61,23.12-27.38,31.51" fill="none" opacity=".07" stroke="#fff" stroke-miterlimit="10" stroke-width="6"/><circle cx="361.39" cy="256" r="46.11" fill="none" stroke="#fff" stroke-miterlimit="10" stroke-width="7"/><circle cx="442.12" cy="209.39" r="11.11" fill="none" stroke="#fff" stroke-miterlimit="10" stroke-width="7"/><circle cx="361.39" cy="256" r="178.67" fill="none" stroke="#fff" stroke-miterlimit="10" stroke-width="7"/><circle cx="361.39" cy="256" r="11.11" fill="none" stroke="#fff" stroke-miterlimit="10" stroke-width="7"/><path d="m224.46,335.06c-8.72-15.11-10.9-21.55-7.3-26.87.57-.84,68.81-69.14,69.29-69.74,1.73-2.15,5.03-2.65,6.87-1.91,2.42.97,4.36,3.77,3.78,6.54-1.64,7.85-4.43,23.21,8.29,45.25" fill="none" stroke="#fff" stroke-miterlimit="10" stroke-width="7"/><path d="m242.33,282.78c2.64,11.73,7.08,23.26,13.4,34.22s14.07,20.53,22.89,28.68" fill="none" opacity=".07" stroke="#fff" stroke-miterlimit="10" stroke-width="6"/><path d="m253.43,271.63c1.93,13.33,6.37,26.52,13.51,38.9,7.25,12.55,16.61,23.12,27.38,31.51" fill="none" opacity=".07" stroke="#fff" stroke-miterlimit="10" stroke-width="6"/><circle cx="361.39" cy="256" r="46.11" fill="none" stroke="#fff" stroke-miterlimit="10" stroke-width="7"/><circle cx="442.12" cy="209.39" r="11.11" fill="none" stroke="#fff" stroke-miterlimit="10" stroke-width="7"/><circle cx="361.39" cy="256" r="178.67" fill="none" stroke="#fff" stroke-miterlimit="10" stroke-width="7"/><circle cx="361.39" cy="256" r="11.11" fill="none" stroke="#fff" stroke-miterlimit="10" stroke-width="7"/><path d="m224.46,335.06c8.72,15.11,13.21,20.21,19.62,19.76,1.01-.07,94.28-25.02,95.04-25.14,2.73-.42,4.81-3.03,5.09-4.99.37-2.58-1.09-5.66-3.78-6.54-7.62-2.5-22.32-7.77-35.04-29.81" fill="none" stroke="#fff" stroke-miterlimit="10" stroke-width="7"/><path d="m278.67,345.72c-8.84-8.15-16.61-17.76-22.94-28.72-6.32-10.94-10.75-22.45-13.39-34.16" fill="none" opacity=".07" stroke="#fff" stroke-miterlimit="10" stroke-width="6"/><path d="m293.87,341.68c-10.58-8.33-19.79-18.78-26.93-31.15-7.25-12.55-11.71-25.95-13.59-39.47" fill="none" opacity=".07" stroke="#fff" stroke-miterlimit="10" stroke-width="6"/><circle cx="361.39" cy="256" r="46.11" fill="none" stroke="#fff" stroke-miterlimit="10" stroke-width="7"/><circle cx="361.39" cy="349.22" r="11.11" fill="none" stroke="#fff" stroke-miterlimit="10" stroke-width="7"/><circle cx="361.39" cy="256" r="178.67" fill="none" stroke="#fff" stroke-miterlimit="10" stroke-width="7"/><circle cx="361.39" cy="256" r="11.11" fill="none" stroke="#fff" stroke-miterlimit="10" stroke-width="7"/><path d="m361.39,97.89c17.44,0,24.11,1.33,26.92,7.11.44.91,25.47,94.16,25.75,94.88,1,2.57-.22,5.68-1.78,6.9-2.05,1.61-5.44,1.89-7.56,0-5.98-5.35-17.89-15.44-43.33-15.44" fill="none" stroke="#fff" stroke-miterlimit="10" stroke-width="7"/><path d="m397.73,139.5c-11.48-3.58-23.68-5.5-36.34-5.5s-24.82,1.92-36.28,5.48" fill="none" opacity=".07" stroke="#fff" stroke-miterlimit="10" stroke-width="6"/><path d="m401.83,154.69c-12.51-5-26.15-7.75-40.44-7.75s-28.33,2.83-40.98,7.96" fill="none" opacity=".07" stroke="#fff" stroke-miterlimit="10" stroke-width="6"/><circle cx="361.39" cy="256" r="46.11" fill="none" stroke="#fff" stroke-miterlimit="10" stroke-width="7"/><circle cx="361.39" cy="349.22" r="11.11" fill="none" stroke="#fff" stroke-miterlimit="10" stroke-width="7"/><circle cx="361.39" cy="256" r="178.67" fill="none" stroke="#fff" stroke-miterlimit="10" stroke-width="7"/><circle cx="361.39" cy="256" r="11.11" fill="none" stroke="#fff" stroke-miterlimit="10" stroke-width="7"/><path d="m361.39,97.89c-17.44,0-24.11,1.33-26.92,7.11-.44.91-25.47,94.16-25.75,94.88-1,2.57.22,5.68,1.78,6.9,2.05,1.61,5.44,1.89,7.56,0,5.98-5.35,17.89-15.44,43.33-15.44" fill="none" stroke="#fff" stroke-miterlimit="10" stroke-width="7"/><path d="m325.05,139.5c11.48-3.58,23.68-5.5,36.34-5.5s24.82,1.92,36.28,5.48" fill="none" opacity=".07" stroke="#fff" stroke-miterlimit="10" stroke-width="6"/><path d="m320.94,154.69c12.51-5,26.15-7.75,40.44-7.75s28.33,2.83,40.98,7.96" fill="none" opacity=".07" stroke="#fff" stroke-miterlimit="10" stroke-width="6"/></svg>